# xmcd
#
# Track frame offsets: 
#        150
#        25932
#        42358
#        62700
#        83959
#        107683
#        124945
#        142376
#        159886
#        179567
#        195440
#        217238
#        235199
#        256696
#        281701
#        302024
#        320025
#        335169
#
# Disc length: 4705 seconds
#
# Revision: 0
# Processed by: cddbd v1.5.2PL0 Copyright (c) Steve Scherf et al.
# Submitted via: ExactAudioCopyFreeDBPlugin 1.0
#
DISCID=14125f12
DTITLE=周杰伦 - 七里香
DYEAR=2004
DGENRE=R&B
TTITLE0=以父之名
TTITLE1=懦夫
TTITLE2=晴天
TTITLE3=三年二班
TTITLE4=东风破
TTITLE5=你听得到
TTITLE6=同一种调调
TTITLE7=她的睫毛
TTITLE8=爱情悬崖
TTITLE9=梯田
TTITLE10=双刀
TTITLE11=爱在西元前
TTITLE12=开不了口
TTITLE13=安静
TTITLE14=简单爱
TTITLE15=可爱女人
TTITLE16=双节棍
TTITLE17=爸我回来了
EXTD=
EXTT0=
EXTT1=
EXTT2=
EXTT3=
EXTT4=
EXTT5=
EXTT6=
EXTT7=
EXTT8=
EXTT9=
EXTT10=
EXTT11=
EXTT12=
EXTT13=
EXTT14=
EXTT15=
EXTT16=
EXTT17=
PLAYORDER=
